<svg width="202" height="40" viewBox="0 0 202 40" fill="none" xmlns="http://www.w3.org/2000/svg">
<path d="M4.74671 16.2039L0.323169 18.4389C-0.492235 23.1884 0.19478 31.785 2.84891 35.5845C5.50303 39.384 17.3722 40.2304 21.6115 39.9511C25.8507 39.6717 34.0527 37.1573 34.0527 37.1573C39.9508 35.481 52.2998 31.9608 54.5116 31.2903C56.7234 30.6198 56.1704 27.4722 55.6175 25.9822L50.641 24.0265L45.388 20.674V24.0265L39.0292 23.1884L36.5409 19.5565L35.1586 23.1884H31.5645C36.7253 24.1196 47.4892 26.3174 49.2586 27.6584C51.0281 28.9994 47.4155 29.7072 45.388 29.8934L42.3469 27.6584L40.688 29.8934H37.6468L35.1586 31.2903L31.5645 25.9822L29.9056 32.1285C28.2468 31.9422 24.4868 31.6815 22.7174 32.1285C20.5056 32.6872 16.0821 29.6141 14.4232 27.6584C13.0962 26.0939 8.89379 27.0065 6.95849 27.6584C9.17026 25.144 10.2761 25.9822 13.0409 25.9822C15.8056 25.9822 19.6762 26.8203 22.7174 25.9822C25.1503 25.3116 27.786 21.419 28.7997 19.5565L34.0527 18.4389L37.6468 14.2483L47.0469 10.8957L47.8763 6.70507L50.641 9.49885L49.2586 0H42.3469L37.6468 5.30818L24.9291 10.8957L19.6762 9.49885L16.0821 14.2483L11.6585 12.8514L6.95849 18.4389L4.74671 16.2039Z" fill="#00BD35"/>
<path d="M17.3021 18.5559C16.9383 19.138 14.7249 19.3644 13.6637 19.4048L14.3459 18.192H17.3021V18.5559Z" fill="#7B49FB" stroke="#190F32" stroke-width="1.58808"/>
<path d="M163.027 7.8975H179.39V11.2007H166.177L166.584 10.7772V18.8065L166.177 18.383H178.374V21.6862H166.177L166.584 21.2628V29.2413L166.177 28.8178H179.729V32.121H163.027V7.8975ZM200.18 13.4452L193.268 22.7111V22.5502L200.773 32.121H196.707L190.634 24.3966H190.753L184.85 32.121H180.996L188.373 22.5925V22.7534L181.368 13.4452H185.434L191.016 20.8901H190.888L196.326 13.4452H200.18Z" fill="#9C75FF"/>
<path d="M74.971 20.0092C74.971 20.828 75.0246 21.5818 75.1319 22.2707C75.2392 22.9595 75.4001 23.5835 75.6147 24.1425C75.8292 24.6958 76.0946 25.1843 76.4108 25.6077C76.7327 26.0256 77.0997 26.3757 77.5119 26.658C77.9297 26.9403 78.3956 27.1549 78.9094 27.3017C79.4232 27.4428 79.9851 27.5134 80.5949 27.5134C81.1482 27.5134 81.6734 27.4626 82.1702 27.361C82.6671 27.2537 83.1273 27.1041 83.5508 26.9121C83.9743 26.7145 84.3554 26.4745 84.6942 26.1921C85.033 25.9042 85.321 25.5767 85.5581 25.2097C85.8009 24.8426 85.9873 24.4389 86.1172 23.9985C86.247 23.5524 86.312 23.0753 86.312 22.5671V22.4485L86.7354 22.9906H80.3662V19.1623H92.2408V32.121H86.4136V25.5654H86.7016C86.4079 26.6552 85.9986 27.6348 85.4735 28.5044C84.9483 29.374 84.3272 30.1165 83.6101 30.7319C82.8986 31.3418 82.0968 31.8104 81.2047 32.1379C80.3126 32.4654 79.3526 32.6292 78.325 32.6292C77.399 32.6292 76.5181 32.4908 75.6824 32.2141C74.8467 31.9431 74.0703 31.5535 73.3532 31.0453C72.6418 30.5315 71.9953 29.9047 71.4137 29.165C70.8377 28.4253 70.3465 27.5868 69.9399 26.6495C69.5334 25.7122 69.22 24.6874 68.9998 23.575C68.7796 22.4626 68.6695 21.2741 68.6695 20.0092C68.6695 18.7331 68.8022 17.5361 69.0676 16.4181C69.3386 15.3001 69.7225 14.2724 70.2194 13.3351C70.7163 12.3978 71.3177 11.5621 72.0235 10.828C72.735 10.094 73.5311 9.47287 74.412 8.96469C75.2985 8.4565 76.2612 8.0669 77.3001 7.79586C78.3447 7.52483 79.4458 7.38932 80.6033 7.38932C81.5689 7.38932 82.4977 7.48813 83.3899 7.68576C84.2877 7.87774 85.1318 8.16006 85.9223 8.53273C86.7185 8.9054 87.4497 9.36277 88.116 9.90483C88.7879 10.4469 89.3865 11.068 89.9116 11.7682C90.4424 12.4627 90.8856 13.2306 91.2413 14.0719C91.6027 14.9133 91.8681 15.8195 92.0375 16.7907H85.8376C85.6739 16.0906 85.4311 15.4807 85.1092 14.9613C84.793 14.4418 84.4091 14.0098 83.9574 13.6654C83.5113 13.3153 83.0059 13.0556 82.4413 12.8862C81.8766 12.7111 81.2668 12.6236 80.6118 12.6236C80.002 12.6236 79.4402 12.6942 78.9263 12.8354C78.4182 12.9765 77.9551 13.1854 77.5373 13.4621C77.1195 13.7388 76.7496 14.0861 76.4278 14.5039C76.1059 14.9161 75.8377 15.396 75.6231 15.9438C75.4086 16.4915 75.2448 17.1041 75.1319 17.7817C75.0246 18.4593 74.971 19.2018 74.971 20.0092ZM94.2574 20.4581C94.2574 19.295 94.4691 18.2504 94.8926 17.3243C95.3217 16.3983 95.9316 15.6106 96.7221 14.9613C97.5182 14.3063 98.4838 13.8066 99.6187 13.4621C100.759 13.112 102.041 12.937 103.464 12.937C104.915 12.937 106.208 13.1205 107.343 13.4875C108.484 13.8489 109.446 14.3769 110.231 15.0714C111.016 15.7602 111.615 16.6072 112.027 17.6123C112.439 18.6174 112.645 19.7608 112.645 21.0425V32.121H106.75V27.361L106.776 27.3525C106.646 27.9002 106.468 28.4084 106.242 28.8771C106.016 29.3457 105.745 29.7777 105.429 30.1729C105.113 30.5625 104.754 30.9098 104.353 31.2147C103.952 31.5196 103.515 31.7765 103.04 31.9855C102.572 32.1944 102.069 32.3525 101.533 32.4598C100.996 32.5727 100.432 32.6292 99.8389 32.6292C98.9186 32.6292 98.08 32.4965 97.3234 32.2311C96.5724 31.9713 95.9287 31.6043 95.3923 31.13C94.8559 30.6501 94.4409 30.0769 94.1473 29.4107C93.8536 28.7387 93.7068 27.9906 93.7068 27.1662C93.7068 26.274 93.8847 25.475 94.2404 24.7692C94.6018 24.0634 95.1241 23.4677 95.8073 22.9821C96.4962 22.4909 97.3347 22.1182 98.3228 21.8641C99.311 21.6044 100.437 21.4745 101.702 21.4745H106.877V24.6591H102.498C102.03 24.6591 101.615 24.6987 101.253 24.7777C100.898 24.8568 100.598 24.9753 100.356 25.1334C100.118 25.2915 99.9377 25.4892 99.8135 25.7263C99.6893 25.9578 99.6272 26.2232 99.6272 26.5225C99.6272 26.8274 99.6865 27.1012 99.8051 27.344C99.9293 27.5868 100.11 27.7901 100.347 27.9539C100.584 28.1176 100.872 28.2447 101.211 28.335C101.555 28.4197 101.948 28.462 102.388 28.462C102.801 28.462 103.193 28.4253 103.566 28.3519C103.944 28.2729 104.294 28.1656 104.616 28.0301C104.938 27.8889 105.231 27.7224 105.497 27.5304C105.762 27.3327 105.985 27.1154 106.166 26.8782C106.352 26.641 106.496 26.3841 106.598 26.1075C106.699 25.8251 106.75 25.5343 106.75 25.2351V21.0425C106.75 20.4666 106.674 19.9528 106.522 19.5011C106.375 19.0437 106.155 18.6569 105.861 18.3407C105.573 18.0245 105.217 17.7845 104.794 17.6208C104.37 17.457 103.882 17.3751 103.328 17.3751C102.775 17.3751 102.295 17.4457 101.889 17.5869C101.488 17.7281 101.157 17.9313 100.898 18.1967C100.638 18.4621 100.443 18.7868 100.313 19.1707C100.189 19.549 100.127 19.9782 100.127 20.4581H94.2574ZM126.78 31.977C125.95 32.1972 125.174 32.3609 124.451 32.4682C123.734 32.5755 123.059 32.6292 122.427 32.6292C121.354 32.6292 120.411 32.4711 119.598 32.1549C118.785 31.8443 118.105 31.3785 117.557 30.7573C117.015 30.1362 116.605 29.3627 116.329 28.4366C116.058 27.505 115.922 26.4208 115.922 25.1843V9.14255H121.817V25.1927C121.817 25.6896 121.859 26.1159 121.944 26.4717C122.035 26.8274 122.17 27.121 122.351 27.3525C122.537 27.5784 122.774 27.7478 123.062 27.8607C123.35 27.9736 123.695 28.0301 124.095 28.0301C124.417 28.0301 124.796 27.9934 125.23 27.92C125.665 27.8466 126.182 27.7365 126.78 27.5897V31.977ZM126.78 18.0527H113.686V13.4452H126.78V18.0527ZM127.424 22.7788C127.424 21.7851 127.531 20.8506 127.745 19.9754C127.96 19.1002 128.268 18.2983 128.669 17.5699C129.07 16.8359 129.555 16.1837 130.125 15.6134C130.696 15.0375 131.339 14.5519 132.057 14.1566C132.774 13.7614 133.553 13.4593 134.394 13.2504C135.235 13.0415 136.125 12.937 137.062 12.937C137.999 12.937 138.889 13.0415 139.73 13.2504C140.571 13.4593 141.351 13.7614 142.068 14.1566C142.785 14.5519 143.429 15.0375 143.999 15.6134C144.569 16.1837 145.055 16.8359 145.456 17.5699C145.857 18.2983 146.164 19.1002 146.379 19.9754C146.593 20.8449 146.701 21.7794 146.701 22.7788C146.701 23.7726 146.593 24.7099 146.379 25.5908C146.164 26.466 145.857 27.2678 145.456 27.9962C145.055 28.7246 144.566 29.3768 143.99 29.9527C143.42 30.523 142.776 31.0086 142.059 31.4095C141.348 31.8048 140.571 32.1069 139.73 32.3158C138.894 32.5247 138.005 32.6292 137.062 32.6292C136.125 32.6292 135.235 32.5247 134.394 32.3158C133.553 32.1069 132.774 31.8048 132.057 31.4095C131.345 31.0086 130.701 30.523 130.125 29.9527C129.555 29.3768 129.07 28.7246 128.669 27.9962C128.268 27.2678 127.96 26.466 127.745 25.5908C127.531 24.7099 127.424 23.7726 127.424 22.7788ZM133.369 22.7788C133.369 23.5524 133.451 24.2356 133.615 24.8285C133.779 25.4214 134.019 25.9211 134.335 26.3277C134.651 26.7286 135.038 27.0335 135.495 27.2424C135.953 27.4513 136.475 27.5558 137.062 27.5558C137.655 27.5558 138.18 27.4541 138.638 27.2509C139.095 27.0419 139.479 26.7342 139.789 26.3277C140.106 25.9211 140.346 25.4214 140.509 24.8285C140.673 24.2356 140.755 23.5524 140.755 22.7788C140.755 22.0053 140.673 21.322 140.509 20.7292C140.346 20.1363 140.106 19.6394 139.789 19.2385C139.479 18.8319 139.095 18.527 138.638 18.3238C138.18 18.1148 137.655 18.0104 137.062 18.0104C136.475 18.0104 135.953 18.1148 135.495 18.3238C135.038 18.527 134.651 18.8319 134.335 19.2385C134.019 19.6394 133.779 20.1363 133.615 20.7292C133.451 21.322 133.369 22.0053 133.369 22.7788ZM154.105 23.9477V32.121H148.21V13.4452H154.105V20.2972L154.088 20.3226C154.229 19.2724 154.441 18.3238 154.723 17.4768C155.011 16.6298 155.386 15.9071 155.849 15.3085C156.312 14.71 156.874 14.2498 157.535 13.928C158.195 13.6061 158.969 13.4452 159.856 13.4452H161.092V18.9675H158.585C157.704 18.9675 156.976 19.0663 156.4 19.2639C155.824 19.4615 155.367 19.7636 155.028 20.1702C154.689 20.5767 154.449 21.0934 154.308 21.7201C154.172 22.3469 154.105 23.0894 154.105 23.9477Z" fill="#00BD35"/>
</svg>
